<svg t="1742356591488" class="icon" viewBox="0 0 1024 1024" version="1.1" xmlns="http://www.w3.org/2000/svg" p-id="32018" width="200" height="200"><path d="M384.682667 174.08c10.581333 0 21.162667 7.168 32.426666 21.504l0.682667 1.024 0.341333 0.682667 0.341334 0.682666c23.210667 34.474667 63.146667 96.256 84.650666 128.341334 10.581333 17.066667 27.648 29.354667 47.104 34.474666l128 35.498667 1.706667 0.341333h0.341333c17.066667 6.826667 27.306667 15.36 30.037334 24.576 3.072 10.581333-0.341333 23.552-11.605334 39.253334l-93.866666 125.269333c-11.264 15.36-17.066667 34.133333-15.701334 53.248l7.168 140.970667v0.341333c-1.024 19.797333-5.12 33.109333-13.312 39.594667-4.437333 3.413333-9.898667 5.12-15.36 5.12-6.826667-0.341333-13.994667-1.706667-20.48-4.096l-143.018666-53.248c-8.533333-3.413333-17.749333-5.12-27.306667-5.12-10.922667 0-21.845333 2.048-32.085333 6.144L221.184 819.2c-10.24 4.096-20.821333 6.485333-31.744 7.168-4.778667 0.341333-9.216-1.365333-12.288-5.12-5.12-6.485333-7.509333-20.48-5.461333-40.96l4.096-160.768c1.024-19.456-5.12-38.229333-17.408-53.248-12.629333-14.677333-27.306667-34.474667-36.522667-46.08-15.701333-19.456-31.402667-38.229333-46.08-58.026667v-0.341333l-1.706667-3.072c-11.605333-18.773333-15.36-32.426667-11.264-43.690667 3.754667-8.533333 13.312-16.384 29.696-21.504L238.933333 348.501333c18.773333-6.144 34.816-18.773333 45.397334-35.498666l70.997333-117.077334c9.216-14.677333 19.114667-21.845333 29.354667-21.845333z" fill="#FFD156" p-id="32019"></path><path d="M384.682667 117.76c-21.845333 0-51.882667 9.557333-77.482667 48.469333L235.52 284.330667c-3.754667 5.12-8.874667 8.874667-15.018667 10.922666l-146.773333 44.714667c-34.474667 10.581333-57.344 30.378667-65.877333 57.344-9.216 25.6-4.096 56.32 16.042666 89.429333l2.048 4.096c0.682667 0.682667 1.365333 1.706667 2.048 2.389334 27.648 35.84 56.32 70.656 83.968 106.496 2.389333 6.826667 4.437333 12.970667 6.826667 20.138666l-4.096 156.672c-2.389333 35.157333 4.096 62.464 19.797333 80.554667 13.994667 15.701333 34.133333 24.576 55.296 24.234667 17.066667-0.341333 33.792-4.778667 49.152-12.629334l124.245334-49.834666c3.072-1.024 6.144-1.365333 9.216-1.365334 3.072 0 6.144 0.682667 8.874666 1.706667l144.384 53.248 2.048 0.682667h1.365334c11.946667 4.096 24.234667 6.144 36.522666 6.144 17.408 0 34.816-5.461333 49.152-15.701334 18.773333-13.994667 34.816-38.912 36.522667-82.944v-1.365333l-8.533333-143.36c0-5.802667 1.706667-11.264 5.12-16.042667l93.866666-127.317333c22.186667-30.378667 29.013333-60.416 20.48-88.405333-8.533333-28.672-31.061333-49.493333-67.242666-62.464l-1.365334-0.341334c-1.024-0.341333-2.389333-1.024-3.413333-1.024L563.2 305.493333c-5.802667-2.048-10.922667-6.144-14.677333-10.922666-27.989333-42.325333-55.978667-86.016-84.992-129.706667l-0.682667-1.365333-0.682667-1.024-0.682666-1.024c-21.162667-28.330667-48.810667-43.690667-76.8-43.690667zM709.973333 211.968h279.552c19.114667 0 28.672 9.557333 28.672 28.672V245.76c0 19.114667-9.557333 28.672-28.672 28.672H709.973333c-19.114667 0-28.672-9.557333-28.672-28.672v-5.12c0-19.114667 9.557333-28.672 28.672-28.672zM795.648 719.872h191.146667c19.114667 0 28.672 9.557333 28.672 28.672 0 19.114667-9.557333 28.672-28.672 28.672h-191.146667c-19.114667 0-28.672-9.557333-28.672-28.672 0-19.114667 9.557333-28.672 28.672-28.672zM891.221333 467.968h97.621334c19.114667 0 28.672 9.557333 28.672 28.672v5.12c0 19.114667-9.557333 28.672-28.672 28.672h-97.621334c-19.114667 0-28.672-9.557333-28.672-28.672v-5.12c0-19.114667 9.557333-28.672 28.672-28.672z" fill="#FFD156" p-id="32020"></path></svg>