<svg t="1742376867924" class="icon" viewBox="0 0 1024 1024" version="1.1" xmlns="http://www.w3.org/2000/svg" p-id="134948" width="200" height="200"><path d="M1002.666667 708.266667c0-34.133333-27.733333-64-64-64-34.133333 0-64 27.733333-64 64 0 27.733333 19.2 51.2 44.8 59.733333H917.333333v110.933333c0 23.466667-19.2 38.4-42.666666 38.4H149.333333c-23.466667 0-42.666667-14.933333-42.666666-38.4V512c-2.133333-10.666667-10.666667-19.2-21.333334-19.2s-21.333333 8.533333-21.333333 19.2V878.933333C64 925.866667 102.4 960 149.333333 960h725.333334c46.933333 0 85.333333-34.133333 85.333333-81.066667V768h-2.133333c25.6-8.533333 44.8-32 44.8-59.733333z m-64 42.666666c-23.466667 0-42.666667-19.2-42.666667-42.666666s19.2-42.666667 42.666667-42.666667 42.666667 19.2 42.666666 42.666667-19.2 42.666667-42.666666 42.666666zM147.2 302.933333c0-27.733333-17.066667-51.2-42.666667-59.733333V153.6C106.666667 130.133333 125.866667 106.666667 149.333333 106.666667h725.333334c23.466667 0 42.666667 23.466667 42.666666 46.933333V514.133333c0 12.8 8.533333 21.333333 21.333334 21.333334s21.333333-8.533333 21.333333-21.333334V153.6C960 106.666667 921.6 64 874.666667 64H149.333333C102.4 64 64 106.666667 64 153.6v89.6c-23.466667 8.533333-42.666667 32-42.666667 59.733333 0 34.133333 27.733333 64 64 64s61.866667-29.866667 61.866667-64z m-104.533333 0c0-23.466667 19.2-42.666667 42.666666-42.666666s42.666667 19.2 42.666667 42.666666-19.2 42.666667-42.666667 42.666667-42.666667-21.333333-42.666666-42.666667z" fill="#1296db" p-id="134949"></path><path d="M768 640h21.333333V362.666667h-21.333333zM539.733333 362.666667H512v277.333333h21.333333v-128h140.8c27.733333 0 51.2-34.133333 51.2-64v-29.866667c0-29.866667-23.466667-55.466667-51.2-55.466666h-134.4z m164.266667 55.466666V448c0 17.066667-14.933333 42.666667-29.866667 42.666667H533.333333v-106.666667h140.8c14.933333 0 29.866667 17.066667 29.866667 34.133333zM369.066667 362.666667h-23.466667c-42.666667 0-55.466667 38.4-59.733333 51.2L234.666667 640h23.466666l29.866667-128H426.666667l29.866666 128h23.466667l-49.066667-226.133333c-6.4-12.8-19.2-51.2-61.866666-51.2z m53.333333 128h-130.133333l14.933333-70.4c8.533333-25.6 21.333333-36.266667 42.666667-36.266667h12.8c21.333333 0 34.133333 10.666667 42.666666 38.4l17.066667 68.266667z" fill="#1296db" p-id="134950"></path></svg>