<svg t="1742376582478" class="icon" viewBox="0 0 1024 1024" version="1.1" xmlns="http://www.w3.org/2000/svg" p-id="115852" width="200" height="200"><path d="M283.5968 307.2L512 405.0944 740.4032 307.2 512 209.3056 283.5968 307.2z m-150.1696-47.104l358.4-153.6a51.2 51.2 0 0 1 40.3456 0l358.4 153.6c41.3696 17.7664 41.3696 76.4416 0 94.208l-358.4 153.6a51.2 51.2 0 0 1-40.3456 0l-358.4-153.6c-41.3696-17.7664-41.3696-76.4416 0-94.208zM512 814.6944l338.2272-144.9472a51.2 51.2 0 1 1 40.3456 94.1056l-358.4 153.6a51.2 51.2 0 0 1-40.3456 0l-358.4-153.6a51.2 51.2 0 1 1 40.3456-94.1056L512 814.6944z" fill="#72D6A7" p-id="115853"></path><path d="M512 609.8944l338.2272-144.9472a51.2 51.2 0 1 1 40.3456 94.1056l-358.4 153.6a51.2 51.2 0 0 1-40.3456 0l-358.4-153.6a51.2 51.2 0 1 1 40.3456-94.1056L512 609.8944z" fill="#72D6A7" p-id="115854"></path></svg>