<svg t="1742357047377" class="icon" viewBox="0 0 1024 1024" version="1.1" xmlns="http://www.w3.org/2000/svg" p-id="53980" width="200" height="200"><path d="M213.333333 85.333333a85.333333 85.333333 0 0 0-85.333333 85.333334v682.666666a85.333333 85.333333 0 0 0 85.333333 85.333334h20.693334v-90.069334a31.829333 31.829333 0 1 1 63.658666 0V938.666667h169.642667v-90.069334a31.829333 31.829333 0 1 1 63.616 0V938.666667h169.685333v-90.069334a31.829333 31.829333 0 1 1 63.616 0V938.666667H810.666667a85.333333 85.333333 0 0 0 85.333333-85.333334V170.666667a85.333333 85.333333 0 0 0-85.333333-85.333334H213.333333z" fill="#BBC7DF" p-id="53981"></path><path d="M298.666667 339.285333C298.666667 316.842667 317.781333 298.666667 341.333333 298.666667h341.333334c23.552 0 42.666667 18.176 42.666666 40.618666v162.56c0 22.442667-19.114667 40.618667-42.666666 40.618667H341.333333c-23.552 0-42.666667-18.176-42.666666-40.618667v-162.56z" fill="#05C059" p-id="53982"></path><path d="M234.666667 339.285333C234.666667 278.613333 285.44 234.666667 341.333333 234.666667h341.333334c55.893333 0 106.666667 43.946667 106.666666 104.618666v162.56c0 60.672-50.773333 104.618667-106.666666 104.618667H341.333333c-55.893333 0-106.666667-43.946667-106.666666-104.618667v-162.56zM341.333333 298.666667c-23.552 0-42.666667 18.176-42.666666 40.618666v162.56c0 22.442667 19.114667 40.618667 42.666666 40.618667h341.333334c23.552 0 42.666667-18.176 42.666666-40.618667v-162.56C725.333333 316.842667 706.218667 298.666667 682.666667 298.666667H341.333333z" fill="#FFFFFF" p-id="53983"></path></svg>