<svg t="1742377025302" class="icon" viewBox="0 0 1024 1024" version="1.1" xmlns="http://www.w3.org/2000/svg" p-id="145611" width="200" height="200"><path d="M578.784 399.456V189.984a64 64 0 0 1 64-64h204.032a64 64 0 0 1 64 64v209.472a64 64 0 0 1-64 64h-204.032a64 64 0 0 1-64-64zM243.904 290.848v60.96H176.864a6.4 6.4 0 0 0-4.864 10.56l95.168 110.336a6.4 6.4 0 0 0 9.664 0l95.168-110.304a6.4 6.4 0 0 0-4.864-10.56h-75.2V290.816q0-43.072 30.432-73.536 30.464-30.464 73.536-30.464h56.96a24 24 0 1 0 0-48h-56.96q-62.944 0-107.488 44.512-44.48 44.512-44.48 107.488z m408.096 394.56a6.4 6.4 0 0 0 4.864 10.56h75.2v60.992q0 43.104-30.432 73.536-30.464 30.464-73.536 30.464h-56.96a24 24 0 0 0 0 48h56.96q62.944 0 107.456-44.48 44.544-44.544 44.544-107.52V696h67.04a6.4 6.4 0 0 0 4.864-10.56l-95.168-110.336a6.4 6.4 0 0 0-9.664 0l-95.168 110.304z m-206.784-37.024a64 64 0 0 0-64-64H177.184a64 64 0 0 0-64 64v209.44a64 64 0 0 0 64 64h204.032a64 64 0 0 0 64-64v-209.44z" fill="#606266" p-id="145612"></path></svg>