<svg t="1742356763315" class="icon" viewBox="0 0 1024 1024" version="1.1" xmlns="http://www.w3.org/2000/svg" p-id="38259" width="200" height="200"><path d="M0 512c0 282.7648 229.2352 512 512 512s512-229.2352 512-512S794.7648 0 512 0 0 229.2352 0 512z" fill="#43B4D2" opacity=".1" p-id="38260"></path><path d="M472 592c15.104 0 29.0048 5.2992 40 14.1056V512H224v256c0 17.7024 14.2976 32 32 32h256v-94.1056a63.8464 63.8464 0 0 1-40 14.1056c-35.3024 0-64-28.6976-64-64s28.6976-64 64-64z" fill="#97D8E7" p-id="38261"></path><path d="M432 472c0 15.104-5.2992 29.0048-14.1056 40H512v-94.4a64.064 64.064 0 0 0 104.4992-49.6A64.064 64.064 0 0 0 512 318.4V224H256a31.9616 31.9616 0 0 0-32 32v256h94.1056a63.8464 63.8464 0 0 1-14.1056-40c0-35.3024 28.6976-64 64-64s64 28.6976 64 64zM592 552c0-15.104 5.2992-29.0048 14.1056-40H512v94.4a64.064 64.064 0 0 0-104.4992 49.6A64.064 64.064 0 0 0 512 705.6V800h256c17.7024 0 32-14.2976 32-32V512h-94.1056a63.8464 63.8464 0 0 1 14.1056 40c0 35.3024-28.6976 64-64 64s-64-28.6976-64-64z" fill="#43B4D2" p-id="38262"></path></svg>