<svg t="1742356411973" class="icon" viewBox="0 0 1024 1024" version="1.1" xmlns="http://www.w3.org/2000/svg" p-id="18912" width="200" height="200"><path d="M188.235294 933.647059C100.894118 933.647059 30.117647 862.870588 30.117647 775.529412S100.894118 617.411765 188.235294 617.411765 346.352941 688.188235 346.352941 775.529412 275.576471 933.647059 188.235294 933.647059z m0-271.058824C126.494118 662.588235 75.294118 713.788235 75.294118 775.529412S126.494118 888.470588 188.235294 888.470588s112.941176-51.2 112.941177-112.941176-51.2-112.941176-112.941177-112.941177zM835.764706 933.647059C748.423529 933.647059 677.647059 862.870588 677.647059 775.529412S748.423529 617.411765 835.764706 617.411765 993.882353 688.188235 993.882353 775.529412 923.105882 933.647059 835.764706 933.647059z m0-271.058824c-61.741176 0-112.941176 51.2-112.941177 112.941177s51.2 112.941176 112.941177 112.941176 112.941176-51.2 112.941176-112.941176-51.2-112.941176-112.941176-112.941177zM519.529412 376.470588C432.188235 376.470588 361.411765 305.694118 361.411765 218.352941S432.188235 60.235294 519.529412 60.235294 677.647059 131.011765 677.647059 218.352941 606.870588 376.470588 519.529412 376.470588z m0-271.058823c-61.741176 0-112.941176 51.2-112.941177 112.941176s51.2 112.941176 112.941177 112.941177 112.941176-51.2 112.941176-112.941177S581.270588 105.411765 519.529412 105.411765z" fill="#577BFF" p-id="18913"></path><path d="M504.470588 737.882353C417.129412 737.882353 346.352941 667.105882 346.352941 579.764706S417.129412 421.647059 504.470588 421.647059 662.588235 492.423529 662.588235 579.764706 591.811765 737.882353 504.470588 737.882353z m0-271.058824c-61.741176 0-112.941176 51.2-112.941176 112.941177s51.2 112.941176 112.941176 112.941176 112.941176-51.2 112.941177-112.941176-51.2-112.941176-112.941177-112.941177z" fill="#FA7F64" p-id="18914"></path><path d="M859.858824 665.6h-4.517648c-12.047059-1.505882-21.082353-13.552941-18.070588-25.6 3.011765-19.576471 4.517647-39.152941 4.517647-58.729412 0-106.917647-51.2-209.317647-137.035294-272.564706-10.541176-7.529412-12.047059-21.082353-4.517647-31.623529 7.529412-10.541176 21.082353-12.047059 31.62353-4.517647C829.741176 343.341176 888.470588 459.294118 888.470588 579.764706c0 22.588235-1.505882 45.176471-6.023529 66.258823-1.505882 10.541176-10.541176 19.576471-22.588235 19.576471zM143.058824 602.352941c-12.047059 0-22.588235-10.541176-22.588236-22.588235C120.470588 417.129412 224.376471 271.058824 377.976471 216.847059c12.047059-4.517647 24.094118 1.505882 28.611764 13.552941 4.517647 12.047059-1.505882 24.094118-13.552941 28.611765-135.529412 48.188235-227.388235 176.188235-227.388235 320.752941 0 12.047059-10.541176 22.588235-22.588235 22.588235zM504.470588 963.764706c-84.329412 0-164.141176-27.105882-231.905882-76.8-10.541176-7.529412-12.047059-21.082353-4.517647-31.62353 7.529412-10.541176 21.082353-12.047059 31.623529-4.517647 58.729412 45.176471 129.505882 67.764706 203.294118 67.764706 54.211765 0 105.411765-12.047059 153.6-36.141176 10.541176-6.023529 24.094118-1.505882 30.117647 10.541176 6.023529 10.541176 1.505882 24.094118-10.541177 30.117647-51.2 27.105882-109.929412 40.658824-171.670588 40.658824z" fill="#577BFF" p-id="18915"></path></svg>