<svg t="1742356866699" class="icon" viewBox="0 0 1024 1024" version="1.1" xmlns="http://www.w3.org/2000/svg" p-id="41116" width="200" height="200"><path d="M361.344 670.976c49.6 50.432 55.36 104.576 0.384 160.448-34.048 34.56-89.152 55.36-165.056 64.256a51.648 51.648 0 0 1-56.704-54.016l0.32-3.584 1.088-8.96c9.28-72.32 29.44-125.248 62.08-158.528 55.04-55.808 108.288-49.92 157.888 0.384z m454.208-529.28l8.576 2.56 8.384 2.816a72 72 0 0 1 44.416 44.864c33.408 97.664 22.784 196.608-31.104 294.72a546.112 546.112 0 0 1-85.184 114.688l-9.6 9.792-9.024 8.896-0.256 2.752c-6.336 58.752-50.88 136.448-132.992 236.928l-7.104 8.64-13.12 15.68a30.272 30.272 0 0 1-51.2-8.064l-1.024-2.816-45.888-146.56-4.16-2.816c-25.792-18.368-50.368-38.4-73.6-60.032l-11.392-10.88-11.136-11.072a736.32 736.32 0 0 1-88.768-109.568l-2.56-3.968L149.312 480a31.232 31.232 0 0 1-14.464-49.152l1.792-2.048 1.92-1.792c122.944-107.392 213.696-160.64 278.656-156.224l4.224 0.32 2.432 0.32 5.44-5.568a549.76 549.76 0 0 1 92.672-74.752l10.752-6.656 9.92-5.76c90.112-51.136 181.504-63.68 272.896-36.928zM539.968 347.904a96 96 0 0 0 0.32 135.744 96 96 0 0 0 135.744 0.32 96 96 0 0 0-0.32-135.744 96 96 0 0 0-135.744-0.32z" fill="#ED7B2F" p-id="41117"></path></svg>