<svg t="1742358069154" class="icon" viewBox="0 0 4216 1024" version="1.1" xmlns="http://www.w3.org/2000/svg" p-id="96636" width="200" height="200"><path d="M532.058353 583.740235l22.889412-138.541176h-462.607059l57.825882-404.781177h681.86353l-22.889412 196.367059h-231.30353l12.047059-80.715294h-220.461176l-34.936471 173.477647h462.607059l-45.778823 312.018824c0 11.264-2.831059 22.106353-8.432942 32.527058-4.818824 9.637647-11.625412 18.070588-20.48 25.298824-8.854588 7.228235-18.853647 12.890353-30.117647 16.865882-10.420706 4.035765-21.684706 6.023529-33.731764 6.02353H57.404235l22.889412-185.524706 34.936471 46.983529h416.828235z m518.505412-439.717647l-22.889412-34.93647h254.192941l-15.661176 104.809411h143.36l-24.094118 115.651765h-133.722353l-39.755294 277.082353h115.651765l-22.889412 115.651765h-254.192941c-23.311059 0-42.164706-7.589647-56.621177-22.889412-14.456471-15.239529-18.853647-34.514824-13.251764-57.825882l46.983529-312.018824h-92.762353l12.047059-115.651765h93.967059l9.637647-69.872941z m1044.60047 369.844706h-369.844706l-12.047058 92.762353h324.065882l57.825882-45.778823-34.93647 161.430588h-508.385883c-23.311059 0-40.96-7.589647-53.007058-22.889412-11.264-15.239529-16.865882-34.514824-16.865883-57.825882l57.825883-427.670589h601.148235l-45.778824 299.971765z m-336.112941-184.32l-10.842353 68.668235h138.541177l12.047058-68.668235h-139.745882z m1187.84-115.651765l-57.825882 427.670589c-1.686588 12.047059-5.662118 22.889412-12.047059 32.527058-6.505412 9.637647-14.456471 18.070588-24.094118 25.298824-8.914824 7.228235-18.552471 12.890353-28.912941 16.865882-9.637647 4.035765-18.913882 6.023529-27.708235 6.02353h-287.924706l-39.755294 252.988235h-231.30353l107.218824-726.437647-33.731765-34.936471h636.084706z m-381.891765 115.651765l-43.369411 287.924706h139.745882l42.164706-287.924706h-138.541177z m1011.832471-179.501176h-230.098824l-10.842352 91.557647h-228.894118l28.912941-206.004706h685.477647l-57.825882 412.009412h-480.677647l-21.684706 160.225882h434.898823l51.802353-45.778824-22.889411 160.225883h-603.557648c-23.311059 0-41.743059-7.589647-55.41647-22.889412-13.673412-16.022588-18.853647-35.719529-15.661177-59.030588l43.369412-307.2h456.58353l26.503529-183.115294z m405.323294 63.849411h183.115294l-19.275294 137.336471h-183.115294l19.275294-137.336471z m-42.164706 369.844706h183.115294l-19.275294 137.336471h-183.115294l19.275294-137.336471z" p-id="96637" fill="#1296db"></path></svg>