<svg t="1742357971206" class="icon" viewBox="0 0 3794 1024" version="1.1" xmlns="http://www.w3.org/2000/svg" p-id="92083" width="200" height="200"><path d="M529.468235 583.740235l22.889412-138.541176H89.750588l57.825883-404.781177h681.863529l-22.889412 196.367059H575.247059l12.047059-80.715294H366.832941l-34.93647 173.477647h462.607058l-45.778823 312.018824c0 11.264-2.831059 22.106353-8.432941 32.527058-4.818824 9.637647-11.625412 18.070588-20.48 25.298824a100.592941 100.592941 0 0 1-30.117647 16.865882c-10.420706 4.035765-21.684706 6.023529-33.731765 6.02353H54.814118l22.889411-185.524706 34.936471 46.983529h416.828235z m518.505412-439.717647l-22.889412-34.93647h254.192941l-15.661176 104.809411h143.36l-24.094118 115.651765h-133.722353l-39.755294 277.082353h115.651765l-22.889412 115.651765h-254.192941c-23.311059 0-42.164706-7.589647-56.621176-22.889412-14.456471-15.239529-18.853647-34.514824-13.251765-57.825882l46.983529-312.018824h-92.762353l12.047059-115.651765h93.967059l9.637647-69.872941z m1044.600471 369.844706H1722.729412l-12.047059 92.762353h324.065882l57.825883-45.778823-34.936471 161.430588h-508.385882c-23.311059 0-40.96-7.589647-53.007059-22.889412-11.264-15.239529-16.865882-34.514824-16.865882-57.825882l57.825882-427.670589h601.148235l-45.778823 299.971765z m-336.112942-184.32l-10.842352 68.668235h138.541176l12.047059-68.668235h-139.745883z m1187.84-115.651765l-57.825882 427.670589c-1.686588 12.047059-5.662118 22.889412-12.047059 32.527058-6.505412 9.637647-14.456471 18.070588-24.094117 25.298824a104.809412 104.809412 0 0 1-28.912942 16.865882c-9.637647 4.035765-18.913882 6.023529-27.708235 6.02353H2505.788235l-39.755294 252.988235H2234.729412l107.218823-726.437647-33.731764-34.936471h636.084705z m-381.891764 115.651765l-43.369412 287.924706h139.745882l42.164706-287.924706h-138.541176z m737.159529 392.734118h-228.894117l75.89647-539.708236-93.967059 13.251765 18.070589-125.289412 326.475294-45.778823-97.581177 697.524706z m263.529412-508.385883h183.115294l-19.275294 137.336471h-183.115294l19.275294-137.336471z m-42.164706 369.844706h183.115294l-19.275294 137.336471h-183.115294l19.275294-137.336471z" fill="#21BB9E" p-id="92084"></path></svg>