<svg t="1742371641172" class="icon" viewBox="0 0 4156 1024" version="1.1" xmlns="http://www.w3.org/2000/svg" p-id="102906" width="200" height="200"><path d="M497.242353 583.740235l22.889412-138.541176H57.524706l57.825882-404.781177h681.86353l-22.889412 196.367059h-231.30353l12.047059-80.715294h-220.461176l-34.936471 173.477647h462.607059l-45.778823 312.018824c0 11.264-2.831059 22.106353-8.432942 32.527058-4.818824 9.637647-11.625412 18.070588-20.48 25.298824a100.592941 100.592941 0 0 1-30.117647 16.865882c-10.420706 4.035765-21.684706 6.023529-33.731764 6.02353H22.588235l22.889412-185.524706 34.936471 46.983529h416.828235z m518.505412-439.717647l-22.889412-34.93647h254.192941l-15.661176 104.809411h143.36l-24.094118 115.651765h-133.722353l-39.755294 277.082353h115.651765l-22.889412 115.651765h-254.192941c-23.311059 0-42.164706-7.589647-56.621177-22.889412-14.456471-15.239529-18.853647-34.514824-13.251764-57.825882l46.983529-312.018824h-92.762353l12.047059-115.651765h93.967059l9.637647-69.872941z m1044.60047 369.844706h-369.844706l-12.047058 92.762353h324.065882l57.825882-45.778823-34.93647 161.430588h-508.385883c-23.311059 0-40.96-7.589647-53.007058-22.889412-11.264-15.239529-16.865882-34.514824-16.865883-57.825882l57.825883-427.670589h601.148235l-45.778824 299.971765z m-336.112941-184.32l-10.842353 68.668235h138.541177l12.047058-68.668235h-139.745882z m1187.779765-115.651765l-57.825883 427.670589c-1.626353 12.047059-5.601882 22.889412-12.047058 32.527058-6.445176 9.637647-14.456471 18.070588-24.094118 25.298824-8.854588 7.228235-18.492235 12.890353-28.912941 16.865882-9.637647 4.035765-18.853647 6.023529-27.708235 6.02353h-287.924706l-39.755294 252.988235h-231.30353l107.218824-726.437647-33.731765-34.936471h636.084706z m-381.891765 115.651765l-43.369412 287.924706h139.745883l42.164706-287.924706h-138.541177z m956.476235 278.287059l30.117647-206.004706h-457.788235l45.778824-321.656471-39.755294-40.96h731.25647l-15.661176 110.832942h-456.58353l-20.48 137.33647h457.788236l-44.574118 320.451765-4.818824 32.527059a100.954353 100.954353 0 0 1-32.527058 59.030588c-17.648941 15.299765-38.128941 22.889412-61.44 22.889412h-603.557647l21.684705-160.225883 39.755295 45.778824h410.804705z m470.136471-393.938824h183.115294l-19.275294 137.336471h-183.115294l19.275294-137.336471z m-42.164706 369.844706h183.115294l-19.275294 137.336471h-183.115294l19.275294-137.336471z" fill="#21BB9E" p-id="102907"></path></svg>