<svg t="1742360303591" class="icon" viewBox="0 0 4096 1024" version="1.1" xmlns="http://www.w3.org/2000/svg" p-id="101799" width="200" height="200"><path d="M496.519529 583.740235l22.889412-138.541176H56.801882l57.825883-404.781177h681.863529l-22.889412 196.367059h-231.303529l12.047059-80.715294h-220.461177l-34.93647 173.477647h462.607059l-45.778824 312.018824c0 11.264-2.770824 22.106353-8.432941 32.527058-4.818824 9.637647-11.625412 18.070588-20.48 25.298824a100.592941 100.592941 0 0 1-30.117647 16.865882c-10.420706 4.035765-21.684706 6.023529-33.731765 6.02353H21.865412l22.889412-185.524706 34.93647 46.983529h416.828235z m518.505412-439.717647l-22.889412-34.93647h254.192942l-15.661177 104.809411h143.36l-24.094118 115.651765h-133.722352l-39.755295 277.082353h115.651765l-22.889412 115.651765h-254.192941c-23.250824 0-42.164706-7.589647-56.621176-22.889412-14.456471-15.239529-18.853647-34.514824-13.251765-57.825882l46.983529-312.018824h-92.762353l12.047059-115.651765h93.967059l9.637647-69.872941z m1044.600471 369.844706h-369.844706l-12.047059 92.762353h324.065882l57.825883-45.778823-34.936471 161.430588h-508.385882c-23.250824 0-40.96-7.589647-53.007059-22.889412-11.203765-15.239529-16.865882-34.514824-16.865882-57.825882l57.825882-427.670589h601.148235l-45.778823 299.971765z m-336.112941-184.32l-10.842353 68.668235h138.541176l12.047059-68.668235h-139.745882z m1187.84-115.651765l-57.825883 427.670589c-1.626353 12.047059-5.662118 22.889412-12.047059 32.527058-6.445176 9.637647-14.456471 18.070588-24.094117 25.298824-8.854588 7.228235-18.492235 12.890353-28.912941 16.865882-9.637647 4.035765-18.913882 6.023529-27.708236 6.02353h-287.924706l-39.755294 252.988235h-231.303529l107.218823-726.437647-33.731764-34.936471h636.084706z m-381.891765 115.651765l-43.369412 287.924706h139.745882l42.164706-287.924706h-138.541176zM3112.357647 36.803765h262.625882l-125.289411 433.694117h178.29647l55.416471-389.12-39.755294-44.574117h274.672941l-61.44 433.694117h91.557647l-15.661177 114.447059h-91.557647l-19.275294 137.336471h-228.894117l19.275294-137.336471h-410.804706l15.661176-114.447059 121.675294-404.781176-26.503529-28.912941zM3897.223529 213.895529h183.115295l-19.275295 137.336471h-183.115294l19.275294-137.336471z m-42.164705 369.844706h183.115294l-19.275294 137.336471h-183.115295l19.275295-137.336471z" p-id="101800" fill="#106415"></path></svg>