<svg t="1742359677477" class="icon" viewBox="0 0 4096 1024" version="1.1" xmlns="http://www.w3.org/2000/svg" p-id="100618" width="200" height="200"><path d="M487.725176 583.740235l22.889412-138.541176H48.007529l57.825883-404.781177h681.863529l-22.889412 196.367059h-231.303529l12.047059-80.715294h-220.461177l-34.93647 173.477647h462.607059l-45.778824 312.018824c0 11.264-2.831059 22.106353-8.432941 32.527058-4.818824 9.637647-11.685647 18.070588-20.48 25.298824a100.592941 100.592941 0 0 1-30.117647 16.865882c-10.480941 4.035765-21.684706 6.023529-33.731765 6.02353H13.071059l22.889412-185.524706 34.93647 46.983529h416.828235z m518.505412-439.717647l-22.889412-34.93647h254.192942l-15.661177 104.809411h143.36l-24.094117 115.651765h-133.722353l-39.755295 277.082353h115.651765l-22.889412 115.651765h-254.192941c-23.311059 0-42.164706-7.589647-56.621176-22.889412-14.456471-15.239529-18.913882-34.514824-13.251765-57.825882l46.983529-312.018824h-92.762352l12.047058-115.651765h93.967059l9.637647-69.872941z m1044.600471 369.844706h-369.844706l-12.047059 92.762353h324.065882l57.825883-45.778823-34.936471 161.430588h-508.385882c-23.311059 0-40.96-7.589647-53.007059-22.889412-11.264-15.239529-16.865882-34.514824-16.865882-57.825882l57.825882-427.670589h601.148235l-45.778823 299.971765z m-336.112941-184.32l-10.842353 68.668235h138.541176l12.047059-68.668235h-139.745882z m1187.779764-115.651765l-57.825882 427.670589c-1.626353 12.047059-5.662118 22.889412-12.047059 32.527058-6.445176 9.637647-14.456471 18.070588-24.094117 25.298824-8.854588 7.228235-18.492235 12.890353-28.912942 16.865882-9.637647 4.035765-18.913882 6.023529-27.708235 6.02353h-287.924706l-39.755294 252.988235h-231.303529l107.218823-726.437647-33.731765-34.936471h636.084706z m-381.891764 115.651765l-43.369412 287.924706h139.745882l42.164706-287.924706h-138.541176z m942.019764 95.171765h-412.009411l15.661176-114.447059h412.009412l22.889412-160.225882h-457.788236l15.661177-113.242353h686.682353l-85.534118 603.557647a93.063529 93.063529 0 0 1-32.527059 59.030588c-17.709176 15.299765-37.767529 22.889412-60.235294 22.889412h-604.762353l16.865883-114.447059h456.583529l26.503529-183.115294z m443.392-210.82353h183.115294l-19.275294 137.336471h-183.115294l19.275294-137.336471z m-42.164706 369.844706h183.115295l-19.275295 137.336471h-183.115294l19.275294-137.336471z" p-id="100619" fill="#c5bd18"></path></svg>